<svg width="30" height="30" viewBox="0 0 30 30" fill="none" xmlns="http://www.w3.org/2000/svg">
<path fill-rule="evenodd" clip-rule="evenodd" d="M29.7295 15.3478C29.7321 15.235 29.7338 15.1223 29.7338 15.0088C29.7583 14.9253 29.8001 14.847 29.86 14.7815C29.9552 14.6763 30.0053 14.5378 29.9996 14.396C29.9938 14.2542 29.9327 14.1203 29.8293 14.0231C29.7654 13.963 29.7161 13.8891 29.6851 13.807C29.676 13.6932 29.6657 13.5796 29.6541 13.466C29.6698 13.3812 29.7031 13.2999 29.7553 13.2293C29.8391 13.1147 29.8745 12.9717 29.8539 12.8313C29.8333 12.6908 29.7584 12.564 29.6453 12.4782C29.5769 12.4261 29.5211 12.3594 29.4818 12.2829C29.4606 12.1676 29.4378 12.0527 29.4135 11.938C29.4208 11.8535 29.4453 11.7708 29.4887 11.6962C29.5602 11.5735 29.5806 11.4276 29.5455 11.29C29.5104 11.1524 29.4227 11.0342 29.3012 10.9607C29.2286 10.9168 29.1669 10.8572 29.1205 10.7862C29.0863 10.6722 29.0509 10.5587 29.0142 10.4455C29.0123 10.3609 29.0293 10.2769 29.064 10.1997C29.1221 10.0702 29.1271 9.92301 29.0779 9.78987C29.0286 9.65672 28.9291 9.54822 28.8007 9.48771C28.7243 9.45183 28.6568 9.39937 28.6032 9.33416C28.5573 9.2237 28.5099 9.1139 28.4609 9.00477C28.4503 8.92089 28.4584 8.8357 28.4847 8.75534C28.5291 8.62045 28.5187 8.47352 28.4557 8.34623C28.3928 8.21894 28.2824 8.12147 28.1483 8.07485C28.0677 8.04676 27.9945 8.00102 27.9339 7.94096C27.8776 7.83759 27.8199 7.73497 27.7609 7.63329C27.741 7.55007 27.7398 7.46346 27.7576 7.37974C27.7876 7.24098 27.7619 7.09598 27.686 6.97598C27.6102 6.85598 27.4902 6.77059 27.352 6.7382C27.2668 6.71815 27.1873 6.67889 27.1195 6.62341C27.0551 6.53003 26.9895 6.43746 26.9228 6.3457C26.8925 6.26328 26.8816 6.17498 26.8909 6.08766C26.9062 5.94648 26.8655 5.80493 26.7774 5.69351C26.6894 5.5821 26.5611 5.50973 26.4203 5.49199C26.333 5.48092 26.2494 5.44991 26.176 5.40136C26.1025 5.31628 26.0283 5.23188 25.9534 5.14819C25.9142 5.06896 25.8939 4.98172 25.8942 4.89333C25.8947 4.75135 25.8394 4.61487 25.7402 4.51329C25.641 4.41172 25.5059 4.35317 25.364 4.35028C25.2755 4.34848 25.1887 4.3261 25.1103 4.28492C25.0288 4.20791 24.9464 4.13182 24.8632 4.05666C24.8163 3.9819 24.7872 3.89742 24.778 3.80966C24.7637 3.66842 24.6944 3.53846 24.5852 3.44781C24.476 3.35716 24.3355 3.31306 24.1941 3.32504C24.1062 3.33237 24.0179 3.31937 23.9359 3.28702C23.8461 3.21842 23.7556 3.15082 23.6643 3.08422C23.6103 3.01501 23.5728 2.93447 23.5545 2.84865C23.5255 2.70965 23.4431 2.58762 23.325 2.50887C23.2068 2.43012 23.0625 2.40097 22.9231 2.4277C22.8387 2.44364 22.7519 2.44044 22.669 2.41833C22.5691 2.35725 22.4684 2.29738 22.367 2.23875C22.3081 2.1767 22.2639 2.10221 22.2377 2.02078C22.1943 1.88556 22.0995 1.7728 21.9738 1.70684C21.8481 1.64088 21.7014 1.62699 21.5656 1.66817C21.4844 1.69256 21.3988 1.69857 21.3151 1.68578C21.2075 1.6346 21.0993 1.58479 20.9904 1.53634C20.9266 1.48097 20.8757 1.41233 20.8412 1.33523C20.7839 1.20538 20.6779 1.10323 20.546 1.05077C20.4142 0.998308 20.267 0.999725 20.1362 1.05472C20.0575 1.08824 19.9731 1.10172 19.8894 1.09853C19.7771 1.05902 19.6642 1.02082 19.5504 0.983932C19.4808 0.935781 19.4228 0.872701 19.3807 0.799296C19.3102 0.676112 19.1941 0.585586 19.0574 0.54723C18.9208 0.508874 18.7745 0.52576 18.6502 0.594248C18.5753 0.636006 18.4922 0.65829 18.4085 0.663721C18.2935 0.636443 18.1782 0.610599 18.0625 0.586195C17.9875 0.545347 17.9225 0.488286 17.8723 0.419161C17.7893 0.303954 17.6644 0.225998 17.5244 0.202107C17.3845 0.178215 17.2407 0.210304 17.1242 0.291451C17.0534 0.3406 16.9724 0.373117 16.8872 0.386578C16.7727 0.372009 16.6579 0.358775 16.5431 0.346879C16.4625 0.31418 16.3904 0.263446 16.3325 0.198571C16.2378 0.0927536 16.1054 0.0283542 15.9638 0.0192474C15.8221 0.0101405 15.6826 0.0570551 15.5752 0.149883C15.5083 0.207334 15.4291 0.248713 15.3438 0.270852C15.231 0.268103 15.1181 0.266667 15.0053 0.266546C14.9208 0.242533 14.8429 0.199343 14.7778 0.140333C14.6727 0.0449398 14.5343 -0.00530129 14.3924 0.0004436C14.2506 0.00618849 14.1167 0.067459 14.0196 0.171044C13.9597 0.234976 13.8858 0.284249 13.8037 0.315045C13.6897 0.324221 13.5759 0.33452 13.4624 0.34613C13.377 0.330857 13.2961 0.296342 13.226 0.245198C13.1114 0.161387 12.9685 0.125926 12.8281 0.14645C12.6876 0.166974 12.5609 0.24184 12.4751 0.354932C12.423 0.423355 12.3563 0.47922 12.2798 0.518408C12.1645 0.539755 12.0495 0.562788 11.9351 0.586945C11.85 0.580092 11.7674 0.55431 11.6934 0.51148C11.5707 0.440157 11.4249 0.419877 11.2874 0.455003C11.1498 0.490129 11.0316 0.577853 10.9581 0.6993C10.914 0.771663 10.8545 0.833375 10.7838 0.880004C10.6696 0.914085 10.5559 0.949477 10.4426 0.98618C10.3581 0.987891 10.2743 0.970948 10.197 0.936556C10.0675 0.878322 9.92036 0.873306 9.78721 0.922591C9.65406 0.971875 9.54561 1.07151 9.48522 1.20003C9.4493 1.27634 9.39694 1.34374 9.33189 1.3974C9.22143 1.44346 9.11153 1.49084 9.00239 1.53953C8.91853 1.55017 8.83335 1.54204 8.75301 1.51575C8.61817 1.47138 8.47131 1.4818 8.34407 1.54475C8.21684 1.60769 8.11943 1.71813 8.07286 1.85225C8.0447 1.93277 7.99898 2.00602 7.939 2.06666C7.83584 2.12303 7.73325 2.18089 7.6314 2.23969C7.5482 2.25966 7.46158 2.26074 7.37791 2.24287C7.23918 2.21286 7.09421 2.23859 6.97426 2.31449C6.85432 2.3904 6.76899 2.51041 6.73669 2.64866C6.71703 2.7348 6.67641 2.81345 6.62193 2.88086C6.52851 2.94565 6.43583 3.01138 6.3441 3.07823C6.2617 3.1083 6.17351 3.11906 6.0863 3.10969C5.94519 3.09434 5.80369 3.13507 5.69233 3.22309C5.58096 3.31112 5.50864 3.4394 5.49095 3.58027C5.48028 3.66866 5.44789 3.75161 5.40015 3.82483C5.31506 3.89821 5.23074 3.9725 5.14722 4.04767C5.06791 4.08677 4.98065 4.10702 4.89223 4.10684C4.75029 4.10637 4.61384 4.16169 4.51229 4.26089C4.41073 4.36008 4.3522 4.49521 4.34931 4.63716C4.34744 4.72565 4.32507 4.81251 4.28397 4.89089C4.20721 4.97254 4.13101 5.05474 4.05594 5.13807C3.9812 5.18512 3.89664 5.21433 3.80881 5.22346C3.6676 5.23779 3.53767 5.30705 3.44704 5.4163C3.3564 5.52556 3.31232 5.66606 3.32429 5.80752C3.33216 5.8961 3.31774 5.98411 3.28629 6.06556C3.21777 6.15526 3.15018 6.24571 3.08372 6.33709C3.01464 6.39131 2.93398 6.42887 2.84802 6.44682C2.70906 6.47591 2.58708 6.55844 2.50836 6.67661C2.42964 6.79479 2.40048 6.93916 2.42715 7.07863C2.4431 7.16297 2.4399 7.24981 2.41779 7.33274C2.35672 7.43275 2.29687 7.5335 2.23825 7.63498C2.17628 7.69303 2.10252 7.73816 2.02033 7.76437C1.88518 7.80775 1.77248 7.90252 1.70654 8.02824C1.6406 8.15396 1.62668 8.30056 1.6678 8.43644C1.69289 8.51846 1.69757 8.60404 1.68559 8.68718C1.63442 8.79472 1.58462 8.9029 1.53619 9.0117C1.48099 9.07575 1.41224 9.12673 1.33493 9.16094C1.20507 9.21828 1.10291 9.32433 1.05045 9.45627C0.997996 9.5882 0.999444 9.73547 1.05448 9.86635C1.08799 9.94481 1.10147 10.0293 1.09829 10.113C1.05879 10.2253 1.02059 10.3384 0.983713 10.4521C0.935451 10.5216 0.872334 10.5796 0.79893 10.6217C0.675811 10.6923 0.585337 10.8085 0.546993 10.9451C0.50865 11.0818 0.525505 11.2281 0.593928 11.3524C0.635677 11.4273 0.657956 11.5103 0.663572 11.5944C0.6363 11.7093 0.610463 11.8246 0.586065 11.9402C0.545206 12.0153 0.488083 12.0802 0.41888 12.1303C0.303739 12.2134 0.225832 12.3383 0.201948 12.4783C0.178065 12.6183 0.210118 12.762 0.291199 12.8786C0.341373 12.9497 0.372451 13.0312 0.386305 13.1157C0.371702 13.2299 0.358784 13.3449 0.346802 13.4598C0.314063 13.5404 0.263348 13.6125 0.198526 13.6705C0.0927329 13.7652 0.0283479 13.8976 0.0192431 14.0393C0.0101383 14.181 0.0570424 14.3205 0.14985 14.428C0.208261 14.495 0.248513 14.575 0.270792 14.6594C0.268136 14.7722 0.266701 14.885 0.266486 14.9978C0.242362 15.0823 0.199197 15.1602 0.140302 15.2255C0.0449294 15.3307 -0.0053001 15.4691 0.000443503 15.611C0.00618711 15.7529 0.067444 15.8868 0.171006 15.9839C0.23597 16.0442 0.283897 16.1187 0.314975 16.2C0.323961 16.3138 0.334258 16.4277 0.346053 16.541C0.330731 16.6266 0.296161 16.7076 0.244956 16.7779C0.161184 16.8925 0.125762 17.0354 0.146316 17.1759C0.16687 17.3164 0.241757 17.4432 0.354852 17.529C0.424309 17.581 0.478977 17.6488 0.518105 17.7245C0.539635 17.8398 0.562475 17.9546 0.586626 18.069C0.579813 18.1542 0.554103 18.2368 0.511365 18.3108C0.439911 18.4335 0.419553 18.5794 0.454682 18.717C0.489811 18.8546 0.577611 18.9729 0.699143 19.0463C0.772532 19.0901 0.83319 19.1508 0.879807 19.2207C0.913881 19.3351 0.949265 19.4487 0.985959 19.5617C0.98727 19.6455 0.971543 19.7296 0.936347 19.8075C0.878133 19.937 0.873124 20.0842 0.922399 20.2173C0.971674 20.3505 1.07129 20.4589 1.19976 20.5193C1.27708 20.5552 1.34336 20.609 1.39709 20.673C1.44314 20.7833 1.49051 20.8931 1.53918 21.0022C1.54911 21.0854 1.54255 21.1706 1.51541 21.2515C1.4711 21.3864 1.48153 21.5333 1.54446 21.6606C1.60738 21.7878 1.71776 21.8853 1.85184 21.932C1.93346 21.9599 2.00573 22.0067 2.0662 22.066C2.12255 22.1694 2.1804 22.272 2.23919 22.3737C2.25847 22.4563 2.2609 22.543 2.24237 22.6273C2.21241 22.766 2.23815 22.911 2.31403 23.031C2.38991 23.151 2.50986 23.2364 2.64807 23.2688C2.734 23.2885 2.81282 23.3289 2.88022 23.3834C2.94499 23.4769 3.01052 23.5694 3.07736 23.6613C3.10675 23.7433 3.11892 23.8311 3.10881 23.9193C3.09356 24.0605 3.13434 24.202 3.22237 24.3134C3.3104 24.4247 3.43864 24.4971 3.57947 24.5148C3.66765 24.5255 3.75077 24.5579 3.82398 24.6056C3.89736 24.6907 3.97169 24.7751 4.04658 24.8584C4.08496 24.9375 4.1063 25.0245 4.10574 25.1139C4.10536 25.2558 4.16074 25.3923 4.25993 25.4938C4.35913 25.5953 4.49422 25.6538 4.63612 25.6567C4.72542 25.6582 4.81173 25.6818 4.88961 25.7221C4.97143 25.799 5.05361 25.8751 5.13693 25.9503C5.18298 26.0245 5.2135 26.1086 5.22211 26.1973C5.23653 26.3386 5.30582 26.4685 5.41507 26.5591C5.52432 26.6498 5.66478 26.6939 5.80622 26.682C5.89478 26.6739 5.98277 26.6885 6.06421 26.72C6.15389 26.7883 6.2445 26.8561 6.33567 26.9224C6.38903 26.9915 6.42778 27.0715 6.44557 27.1582C6.47457 27.2972 6.55702 27.4192 6.67515 27.4979C6.79328 27.5767 6.93763 27.6058 7.07705 27.5791C7.16145 27.5633 7.24831 27.5666 7.33129 27.5887C7.43126 27.6497 7.5318 27.7096 7.63308 27.7681C7.69112 27.83 7.73643 27.9036 7.76245 27.986C7.80586 28.1212 7.90064 28.234 8.02636 28.2999C8.15208 28.3659 8.29868 28.3798 8.43456 28.3386C8.51578 28.3143 8.60141 28.3083 8.68524 28.321C8.7927 28.372 8.90091 28.4218 9.00969 28.4705C9.07278 28.5257 9.12483 28.5933 9.1589 28.6716C9.21622 28.8015 9.32226 28.9037 9.45417 28.9561C9.58609 29.0085 9.73332 29.007 9.86414 28.9519C9.94202 28.9192 10.0262 28.9043 10.1105 28.9081C10.223 28.9476 10.3359 28.9858 10.4498 29.0227C10.5183 29.0712 10.5773 29.133 10.6192 29.2073C10.6897 29.3306 10.8059 29.4211 10.9426 29.4595C11.0793 29.4978 11.2256 29.4809 11.3499 29.4124C11.4248 29.3708 11.5077 29.3485 11.5918 29.3431C11.7065 29.3702 11.8219 29.3959 11.9378 29.4204C12.0119 29.4616 12.0778 29.5174 12.1278 29.5875C12.2108 29.7027 12.3357 29.7807 12.4757 29.8046C12.6156 29.8286 12.7594 29.7965 12.8759 29.7154C12.947 29.6654 13.0285 29.6341 13.1129 29.6202C13.2271 29.6348 13.3421 29.6478 13.457 29.6599C13.5368 29.6929 13.6094 29.7423 13.6676 29.8081C13.7623 29.9139 13.8947 29.9783 14.0363 29.9874C14.1779 29.9965 14.3175 29.9497 14.4249 29.8569C14.4917 29.7993 14.5709 29.7579 14.6563 29.736C14.7688 29.7384 14.8814 29.7399 14.9944 29.7401C15.0781 29.7644 15.1566 29.8064 15.2223 29.8663C15.3028 29.9399 15.4003 29.9843 15.5016 30H15.6692C15.7885 29.9817 15.8981 29.9237 15.9803 29.8354C16.0405 29.7716 16.1144 29.7224 16.1964 29.6914C16.3102 29.6823 16.4239 29.6719 16.5375 29.6603C16.6219 29.6762 16.7035 29.7094 16.7741 29.7614C16.8887 29.8453 17.0315 29.8807 17.172 29.8602C17.3124 29.8396 17.4391 29.7647 17.5249 29.6515C17.5771 29.5832 17.6439 29.5274 17.7205 29.4882C17.8356 29.4669 17.9508 29.444 18.0654 29.4197C18.1494 29.427 18.2325 29.4513 18.3067 29.495C18.4294 29.5664 18.5752 29.5868 18.7128 29.5517C18.8503 29.5166 18.9686 29.4288 19.0421 29.3073C19.0861 29.2348 19.1457 29.173 19.2165 29.1264C19.3305 29.0924 19.4441 29.057 19.5573 29.0203C19.6413 29.019 19.7254 29.0345 19.8033 29.0701C19.9327 29.1283 20.0799 29.1332 20.213 29.084C20.3461 29.0347 20.4545 28.9351 20.5149 28.8066C20.5507 28.7293 20.6042 28.6628 20.6684 28.609C20.7787 28.563 20.8884 28.5157 20.9975 28.4671C21.0814 28.4563 21.1666 28.4644 21.2469 28.4909C21.3818 28.5352 21.5287 28.5248 21.6559 28.4618C21.7831 28.3988 21.8805 28.2883 21.9271 28.1542C21.9552 28.0727 22.002 28.0005 22.0613 27.9398C22.1645 27.8832 22.2669 27.8256 22.3689 27.7666C22.4521 27.7468 22.5387 27.7457 22.6224 27.7636C22.7612 27.7936 22.9062 27.7679 23.0262 27.692C23.1462 27.616 23.2315 27.4959 23.2638 27.3576C23.2835 27.2716 23.3241 27.1928 23.3786 27.1254C23.4718 27.0608 23.5643 26.9951 23.656 26.9282C23.7385 26.8981 23.8268 26.8873 23.9142 26.8966C24.0553 26.9119 24.1968 26.8712 24.3082 26.7832C24.4195 26.6951 24.4919 26.5669 24.5095 26.426C24.5202 26.3374 24.5526 26.2545 24.6001 26.1812C24.6853 26.1078 24.7698 26.0337 24.8536 25.9586C24.9323 25.9204 25.0193 25.8989 25.1084 25.8994C25.2504 25.8999 25.3868 25.8445 25.4883 25.7453C25.5897 25.6461 25.6482 25.511 25.651 25.3691C25.6525 25.2798 25.6763 25.1935 25.7165 25.1156C25.7933 25.0339 25.8697 24.9515 25.9447 24.8684C26.0189 24.8221 26.1031 24.7916 26.1915 24.7832C26.3327 24.7688 26.4627 24.6996 26.5533 24.5903C26.644 24.481 26.688 24.3404 26.676 24.1989C26.669 24.1112 26.682 24.023 26.714 23.9411C26.7827 23.8514 26.8501 23.7607 26.9166 23.6694C26.9858 23.6152 27.0665 23.5777 27.1525 23.5596C27.2914 23.5306 27.4134 23.4481 27.4922 23.33C27.5709 23.2118 27.6001 23.0675 27.5733 22.928C27.5573 22.8435 27.5605 22.7565 27.5829 22.6735C27.6435 22.5737 27.7036 22.4731 27.7621 22.3717C27.8242 22.3136 27.8978 22.2683 27.98 22.2423C28.1151 22.1989 28.2279 22.1042 28.2938 21.9784C28.3598 21.8527 28.3737 21.7061 28.3325 21.5702C28.3083 21.4888 28.3023 21.4031 28.3149 21.3191C28.366 21.2118 28.4158 21.1037 28.4641 20.9949C28.5194 20.9308 28.5882 20.8798 28.6656 20.8455C28.7953 20.7881 28.8974 20.682 28.9497 20.5501C29.0021 20.4181 29.0006 20.2709 28.9456 20.1401C28.9131 20.0621 28.8982 19.9779 28.9018 19.8935C28.9413 19.7811 28.9797 19.668 29.0166 19.5543C29.0649 19.4856 29.1267 19.4268 29.2012 19.3847C29.3243 19.3141 29.4147 19.1979 29.4531 19.0613C29.4915 18.9247 29.4747 18.7784 29.4064 18.654C29.3654 18.5795 29.3416 18.4968 29.3365 18.4119C29.3639 18.2971 29.3895 18.1817 29.414 18.066C29.455 17.9919 29.511 17.9261 29.5812 17.876C29.6963 17.7928 29.7741 17.6679 29.798 17.5279C29.8219 17.388 29.7899 17.2443 29.7089 17.1277C29.6597 17.0569 29.6272 16.9758 29.6138 16.8906C29.6284 16.7764 29.6415 16.6614 29.6533 16.5464C29.6866 16.4668 29.7359 16.394 29.8018 16.3356C29.9076 16.2409 29.972 16.1085 29.9811 15.9668C29.9902 15.8251 29.9433 15.6855 29.8505 15.5781C29.7927 15.5118 29.7513 15.4329 29.7295 15.3478Z" fill="#9E9E9E"/>
<path fill-rule="evenodd" clip-rule="evenodd" d="M16.7353 14.3691C17.2026 14.4498 16.9206 15.2155 16.2519 15.6425C15.5831 16.0698 14.8015 16.3357 14.8015 16.3357C15.2531 14.6753 16.2684 14.2884 16.7353 14.3691ZM20.9418 14.3852C21.393 14.4821 21.2358 15.33 20.3454 15.7876C19.5072 16.2183 19.2005 16.2674 19.2005 16.2674C19.5392 14.736 20.4907 14.2884 20.9418 14.3852ZM11.8364 15.9809C11.8129 16.1357 11.7842 16.2896 11.7504 16.4425C11.033 16.4773 10.8668 15.9841 10.8857 15.4142C11.1285 15.0287 12.0122 14.8298 11.8364 15.9809ZM10.7485 18.5038C9.93463 19.5759 9.22546 18.5441 10.2892 16.5775C10.5906 16.8791 11.113 16.9949 11.5922 17.0057C11.3929 17.584 11.1126 18.024 10.7485 18.5038ZM11.385 14.353C10.7887 14.353 10.0992 14.7867 9.59615 15.3685C7.66051 17.6078 7.6139 20.4784 8.96766 20.4784C11.0879 20.4784 11.9654 17.4962 12.2715 16.9481C12.3522 16.9481 12.9726 16.8756 13.2867 16.5614L12.2552 19.8015L13.8186 19.2693L14.4632 17.0612C14.4632 17.0612 14.7066 17.5883 15.3495 18.3669C16.1152 19.2937 17.2408 18.4577 17.7185 17.98C18.0995 18.3609 18.9431 19.0939 20.5388 18.3506C21.8379 17.7456 22.6903 17.3271 21.9567 17.0932C19.6684 18.4152 18.9272 17.5769 19.1204 16.7387C19.9425 16.658 21.0394 16.2563 21.7004 15.6414C23.3195 14.1341 21.7392 13.2971 20.0228 14.0306C18.4706 14.6938 17.5089 16.6902 17.6216 17.4479C16.8482 18.0443 16.268 16.9805 15.8327 16.4C16.6226 16.0777 17.7908 15.6181 18.1214 14.9332C18.9796 13.1533 16.4292 13.4823 15.4463 14.4656C15.4463 14.4656 15.7202 13.8371 16.3165 11.9672C16.9126 10.0972 16.3165 10.5326 14.8335 11.6125C13.351 12.6926 13.5846 12.6039 13.8022 12.8214C13.9875 12.6361 14.3046 12.3057 14.624 12.3057C14.3902 13.007 13.8505 14.7882 13.6733 15.2556C13.4476 15.8037 13.0044 16.0698 12.513 16.2713C12.5132 15.4168 12.7066 14.353 11.385 14.353ZM11.8867 20.767C9.96683 21.6067 4.40538 22.7682 7.68635 16.0983C8.65894 14.1208 11.1719 11.5732 11.8843 12.3707C11.4657 12.3812 10.668 13.2005 11.1433 13.6761C11.9435 14.4762 13.3704 11.8887 11.7235 11.5322C10.1602 11.1936 6.08303 13.821 4.63247 17.7703C3.72185 20.2496 4.93745 23.8103 10.4826 21.8969C14.1732 20.6234 16.0426 20.1075 17.7996 21.3649C18.8308 20.7202 22.038 20.446 23.2626 20.8166C20.8451 18.5441 15.9617 18.9845 11.8867 20.767ZM10.664 10.1139C10.462 10.3122 10.1063 10.5852 9.80714 10.5876C9.54541 10.5899 9.6203 9.74273 9.76464 9.32102C9.94867 8.78284 10.1527 8.48061 10.3034 8.55532C10.4223 8.61412 10.3576 9.09313 10.3576 9.09369H10.3577C10.3604 9.11523 10.363 9.13657 10.366 9.15811C10.4079 9.43319 10.8419 9.3596 10.8409 9.09388C10.8396 8.73565 10.9065 8.21208 10.6165 7.96565C10.1278 7.55049 9.52351 8.24373 9.32524 9.07085C9.23351 9.4536 9.18483 9.85452 9.20786 10.2446C9.2249 10.5339 9.27844 10.8882 9.57855 11.0185C10.0618 11.2286 10.5848 10.7741 10.9095 10.4556C11.1323 10.2371 10.8868 9.89534 10.664 10.1139ZM10.3577 9.14238L10.3579 9.09388L10.3577 9.14238ZM13.0497 10.5822C13.2426 10.7749 13.5923 10.6502 13.4916 10.3957C13.3798 10.1135 13.3783 9.80378 13.3877 9.50135C13.4069 9.29425 13.438 9.0892 13.4483 8.90587C13.4685 8.54708 13.4277 8.08961 13.0112 7.98475C12.7455 7.9179 12.5474 8.09673 12.4016 8.31226C12.2893 8.44147 11.8985 9.35698 11.7727 9.65603C11.7553 8.49652 11.9613 7.31829 12.1861 6.19643C12.2471 5.89195 11.7328 5.76236 11.6714 6.06778C11.3743 7.54993 11.0958 9.61109 11.3485 10.6416C11.4004 10.853 11.7291 10.8893 11.8864 10.5871C12.1571 10.0663 12.2548 9.69591 12.4847 9.15642C12.8202 8.36863 12.9187 8.62686 12.9187 8.85269C12.9187 9.3066 12.8453 9.68637 12.8949 10.1435C12.9262 10.43 12.946 10.4783 13.0497 10.5822ZM14.8045 7.95928C14.9874 7.77652 15.1353 7.83344 15.052 8.0134C14.9689 8.19317 14.686 8.49933 14.4099 8.6497C14.4982 8.39484 14.6242 8.13942 14.8045 7.95928ZM15.2286 9.56596C15.033 9.69214 14.8054 9.75947 14.5727 9.75996C14.3505 9.76052 14.3213 9.3948 14.3151 9.23451V9.22496C14.8884 9.00399 15.41 8.55326 15.5665 7.97801C15.6474 7.68064 15.6034 7.34938 15.2696 7.26062C15.0183 7.19377 14.6918 7.36605 14.5542 7.5196C14.211 7.90292 13.9433 8.35608 13.8611 8.86018C13.7728 8.90699 13.746 8.9158 13.699 8.94201C13.4695 9.0701 13.5226 9.40997 13.8274 9.35997C13.8319 9.35941 13.8366 9.35829 13.8413 9.35754C13.8426 9.37158 13.843 9.38582 13.8447 9.39986C13.8868 9.75696 14.0375 10.1131 14.4078 10.2215C14.7629 10.3257 15.252 10.104 15.4729 9.83823C15.6672 9.60434 15.4929 9.39855 15.2286 9.56596ZM16.7873 7.42054C16.6342 7.74936 16.4417 8.20253 16.2921 8.53379C16.3301 8.19223 16.4533 7.74281 16.2983 7.47391C16.2 7.30294 15.6474 7.30069 15.8329 7.87295C15.8789 8.01433 15.8168 8.54521 15.7941 8.77704C15.7558 9.16541 15.6975 9.58412 15.8056 9.96838C15.8673 10.1884 16.2229 10.2105 16.2717 9.96838C16.4103 9.28001 16.5482 8.83434 16.8839 8.16826C17.2488 7.44338 17.1911 7.73513 17.3166 8.16714C17.3842 8.40084 17.7996 8.32369 17.7773 8.04036C17.7517 7.72165 17.8505 7.46117 17.782 7.12898C17.723 6.84135 17.1545 6.63181 16.7873 7.42054ZM22.1149 6.45466C22.0708 6.60933 22.0286 6.7642 21.9876 6.91962C21.8062 7.51716 21.438 8.25721 21.3404 8.41675C21.2425 8.5763 21.0439 8.91711 20.9242 8.96729C20.8046 9.01748 21.0355 7.44338 21.1425 6.71626C21.1805 6.45803 20.851 6.27845 20.7009 6.52994C20.5167 6.83798 20.4101 7.19527 20.2291 7.42447C20.0488 7.65386 20.3476 7.92258 20.5215 7.80666C20.489 8.10534 20.4137 8.40458 20.4002 8.70457C20.3907 8.91205 20.3454 9.10699 20.4367 9.29668C20.7318 9.90939 21.3041 9.28132 21.4807 9.05231C21.5205 9.00062 21.5589 8.94782 21.5965 8.89445C21.519 9.53525 21.5439 10.1337 21.5984 10.7865C21.6241 11.0949 21.9944 11.0502 21.9848 10.7382C21.9453 9.39293 22.1249 8.31208 22.4441 7.0846C22.4946 6.91775 22.5399 6.75034 22.5807 6.5833C22.6547 6.28032 22.2001 6.15448 22.1149 6.45466ZM19.0584 7.13047C18.9057 7.45949 18.7132 7.91265 18.5636 8.24373C18.6016 7.90217 18.7245 7.45256 18.5698 7.18384C18.4711 7.01288 17.9189 7.01063 18.1044 7.5827C18.1501 7.72408 18.0879 8.25496 18.0653 8.48679C18.0269 8.87516 17.9687 9.29387 18.0767 9.67794C18.1385 9.89797 18.4942 9.92006 18.5429 9.67794C18.6814 8.98976 18.8197 8.5439 19.155 7.87782C19.5199 7.15295 19.4626 7.44469 19.5877 7.8767C19.6553 8.11058 20.0707 8.03306 20.0484 7.74993C20.0232 7.43121 20.1216 7.17074 20.0535 6.83873C19.9942 6.5511 19.426 6.34155 19.0584 7.13047ZM23.2195 18.224V18.6128H23.3818C23.4781 18.6128 23.5483 18.5976 23.5932 18.5673C23.6378 18.5369 23.6604 18.4892 23.6604 18.424C23.6604 18.3557 23.6363 18.3051 23.588 18.2727C23.54 18.2401 23.4659 18.2238 23.3654 18.2238H23.2195V18.224ZM22.8945 18.0151H23.421C23.6125 18.0151 23.7563 18.0476 23.8525 18.1122C23.9491 18.177 23.9968 18.2738 23.9968 18.4023C23.9968 18.4914 23.9708 18.5677 23.919 18.6309C23.8667 18.6941 23.7946 18.7368 23.7025 18.7598L24.0034 19.3672H23.6393L23.3818 18.8102H23.2195V19.3672H22.8945V18.0151ZM23.3994 17.7018C23.262 17.7018 23.134 17.7259 23.0158 17.7742C22.8962 17.8236 22.7878 17.8965 22.697 17.9887C22.5987 18.0873 22.5225 18.1997 22.4695 18.3252C22.4165 18.4506 22.3898 18.58 22.3898 18.7135C22.3898 18.8484 22.4147 18.9761 22.4647 19.0974C22.5145 19.2184 22.5864 19.3264 22.6807 19.421C22.7773 19.5199 22.887 19.5957 23.0106 19.6483C23.1341 19.7009 23.2626 19.7272 23.3961 19.7272C23.5258 19.7272 23.6527 19.7017 23.7756 19.6508C23.9001 19.5989 24.014 19.5243 24.1112 19.4307C24.2051 19.3402 24.2798 19.2316 24.3307 19.1115C24.3822 18.9921 24.4088 18.8634 24.4089 18.7334C24.4089 18.589 24.3848 18.4559 24.3365 18.3341C24.2882 18.2124 24.2164 18.1033 24.1212 18.0066C24.0281 17.9088 23.916 17.8311 23.7917 17.7786C23.6674 17.7268 23.534 17.7007 23.3994 17.7018ZM23.3963 17.4986C23.5638 17.4986 23.7216 17.5299 23.8701 17.5926C24.0194 17.6557 24.1546 17.7481 24.2676 17.8643C24.3783 17.9753 24.4654 18.1074 24.5239 18.2529C24.5826 18.3988 24.612 18.5534 24.612 18.7167C24.612 18.8824 24.5817 19.0388 24.5207 19.1864C24.4602 19.3334 24.3695 19.4661 24.2545 19.5759C24.1405 19.6886 24.0056 19.7779 23.8574 19.8388C23.7111 19.899 23.5544 19.93 23.3963 19.9298C23.2364 19.9302 23.0782 19.8981 22.9312 19.8354C22.7823 19.7715 22.6475 19.6788 22.5345 19.5626C22.3111 19.3378 22.1861 19.0335 22.187 18.7165C22.187 18.6057 22.2016 18.4974 22.2308 18.3926C22.2616 18.2846 22.3061 18.1811 22.3632 18.0845C22.4679 17.9048 22.6181 17.7559 22.7987 17.6527C22.9793 17.5499 23.1785 17.4986 23.3963 17.4986Z" fill="white"/>
</svg>
